# Blender v2.76 (sub 0) OBJ File: 'Shotgun.blend'
# www.blender.org
mtllib Shotgun.mtl
o Cube.001
v -0.020545 -0.006058 0.130936
v -0.020545 -0.006058 0.068604
v 0.020545 -0.006058 0.068604
v 0.020545 -0.006058 0.130936
v -0.020545 0.060532 0.162445
v -0.020545 0.060532 0.119699
v 0.020545 0.060532 0.119699
v 0.020545 0.060532 0.162445
v 0.094577 0.161182 0.103501
v 0.005942 0.161182 0.103501
v 0.094577 0.049152 0.103501
v 0.005942 0.049152 0.103501
v 0.094577 0.161183 0.787435
v 0.005942 0.161183 0.787435
v 0.094577 0.049152 0.787435
v 0.005942 0.049152 0.787435
v -0.095428 0.049152 0.787435
v -0.006794 0.049152 0.787435
v -0.095428 0.161183 0.787435
v -0.006794 0.161183 0.787435
v -0.095428 0.049152 0.103501
v -0.006794 0.049152 0.103501
v -0.095428 0.161182 0.103501
v -0.006794 0.161182 0.103501
v 0.079004 0.135423 0.033813
v 0.079004 0.135423 0.191821
v -0.079004 0.135423 0.191821
v -0.079004 0.135423 0.033813
v 0.079004 -0.096167 -0.157498
v 0.079004 -0.096167 0.000510
v -0.079004 -0.096167 0.000510
v -0.079004 -0.096167 -0.157498
v -0.020545 0.060532 0.162445
v -0.020545 0.060532 0.162445
v -0.020545 0.060532 0.119699
v -0.020545 0.060532 0.119699
v -0.020545 -0.006058 0.068604
v -0.020545 -0.006058 0.068604
v -0.020545 -0.006058 0.130936
v -0.020545 -0.006058 0.130936
v 0.020545 0.060532 0.119699
v 0.020545 0.060532 0.119699
v 0.020545 -0.006058 0.068604
v 0.020545 -0.006058 0.068604
v 0.020545 0.060532 0.162445
v 0.020545 0.060532 0.162445
v 0.020545 -0.006058 0.130936
v 0.020545 -0.006058 0.130936
v 0.094577 0.049152 0.103501
v 0.094577 0.049152 0.103501
v 0.094577 0.161182 0.103501
v 0.094577 0.161182 0.103501
v 0.005942 0.049152 0.103501
v 0.005942 0.049152 0.103501
v 0.005942 0.161182 0.103501
v 0.005942 0.161182 0.103501
v 0.094577 0.049152 0.787435
v 0.094577 0.049152 0.787435
v 0.094577 0.161183 0.787435
v 0.094577 0.161183 0.787435
v 0.005942 0.049152 0.787435
v 0.005942 0.049152 0.787435
v 0.005942 0.161183 0.787435
v 0.005942 0.161183 0.787435
v -0.095428 0.049152 0.103501
v -0.095428 0.049152 0.103501
v -0.095428 0.049152 0.787435
v -0.095428 0.049152 0.787435
v -0.006794 0.049152 0.103501
v -0.006794 0.049152 0.103501
v -0.006794 0.049152 0.787435
v -0.006794 0.049152 0.787435
v -0.095428 0.161183 0.787435
v -0.095428 0.161183 0.787435
v -0.095428 0.161182 0.103501
v -0.095428 0.161182 0.103501
v -0.006794 0.161182 0.103501
v -0.006794 0.161182 0.103501
v -0.006794 0.161183 0.787435
v -0.006794 0.161183 0.787435
v 0.079004 -0.096167 -0.157498
v 0.079004 -0.096167 -0.157498
v 0.079004 -0.096167 0.000510
v 0.079004 -0.096167 0.000510
v 0.079004 0.135423 0.191821
v 0.079004 0.135423 0.191821
v 0.079004 0.135423 0.033813
v 0.079004 0.135423 0.033813
v -0.079004 -0.096167 0.000510
v -0.079004 -0.096167 0.000510
v -0.079004 0.135423 0.191821
v -0.079004 0.135423 0.191821
v -0.079004 -0.096167 -0.157498
v -0.079004 -0.096167 -0.157498
v -0.079004 0.135423 0.033813
v -0.079004 0.135423 0.033813
vn -1.000000 0.000000 0.000000
vn 0.000000 0.608800 -0.793400
vn 1.000000 0.000000 0.000000
vn 0.000000 -0.427700 0.903900
vn 0.000000 -1.000000 0.000000
vn 0.000000 1.000000 -0.000000
vn -0.000000 -0.000000 -1.000000
vn 0.000000 0.000000 1.000000
vn 0.000000 -0.636900 0.771000
vn 0.000000 0.636900 -0.771000
usemtl None
s off
f 33//1 35//1 37//1 39//1
f 36//2 41//2 43//2 38//2
f 42//3 45//3 47//3 44//3
f 46//4 34//4 40//4 48//4
f 1//5 2//5 3//5 4//5
f 8//6 7//6 6//6 5//6
f 49//7 53//7 55//7 51//7
f 57//8 59//8 63//8 61//8
f 56//6 64//6 60//6 52//6
f 9//3 13//3 58//3 50//3
f 11//5 15//5 62//5 54//5
f 12//1 16//1 14//1 10//1
f 65//1 67//1 73//1 75//1
f 69//5 71//5 68//5 66//5
f 77//3 79//3 72//3 70//3
f 76//6 74//6 80//6 78//6
f 18//8 20//8 19//8 17//8
f 22//7 21//7 23//7 24//7
f 81//3 87//3 85//3 83//3
f 84//9 86//9 91//9 89//9
f 90//1 92//1 95//1 93//1
f 94//10 96//10 88//10 82//10
f 25//6 28//6 27//6 26//6
f 32//5 29//5 30//5 31//5
